<svg width="1081" height="1080" viewBox="0 0 1081 1080" fill="none" xmlns="http://www.w3.org/2000/svg">
<rect x="0.226562" width="1080" height="1080" rx="250" fill="white"/>
<g clip-path="url(#clip0_3573_255)">
<path d="M536.563 182.502H540.362C583.942 134.358 666.97 176.816 679.567 233.298C726.36 235.185 754.257 288.71 743.292 331.295C781.975 365.414 782.001 430.439 750.789 469.403C747.142 473.968 734.367 483.683 733.245 487.559C731.868 492.302 733.372 498.805 732.403 504.568C728.833 525.733 711.315 548.81 693.031 559.546C685.407 564.034 672.351 566.431 666.613 571.378C663.119 574.387 658.173 586.525 653.889 591.803C643.23 605.012 625.124 616.844 607.963 618.553C606.331 620.032 618.316 641.273 620.152 645.889C623.645 654.686 626.96 665.269 628.363 674.653C631.066 674.729 632.111 676.004 633.463 673.021C635.375 668.839 642.898 659.149 646.162 655.477C663.885 635.663 686.478 615.034 709.096 601.111C749.029 576.529 794.955 565.334 841.288 559.775L849.856 566.609C849.856 577.345 851.08 588.871 850.315 599.53C846.669 650.147 822.291 707.063 791.589 747.353C784.857 756.202 774.784 764.668 768.588 772.802C766.905 775.021 765.069 775.276 766.038 779.177C801.151 786.853 836.163 804.983 861.739 830.126L862.632 836.144C860.745 840.989 857.838 844.61 854.038 848.078C781.848 914.073 671.535 937.762 579.862 900.354C557.167 891.097 551.557 879.596 523.762 890.102C500.2 899.002 482.656 909.534 456.059 914.2C394.859 924.961 333.991 915.424 279.752 884.238C257.899 871.666 234.847 854.912 217.966 836.297C216.334 830.764 225.106 823.598 229.211 819.952C251.677 800.138 287.632 782.798 317.237 779.177C319.073 772.292 313.973 775.046 310.888 771.578C267.436 722.312 235.433 660.985 230.614 594.226C230.027 586.091 228.166 564.901 235.561 561.101C242.038 557.786 244.715 561.892 249.739 562.376C303.595 567.706 360.664 585.581 402.713 621.052C420.665 636.199 435.481 655.834 452.387 672.077L472.813 618.527C456.416 616.64 437.827 603.865 428.264 590.401C424.618 585.275 420.436 571.378 416.764 568.751C412.888 565.972 399.679 563.651 393.737 561.178C353.779 544.577 338.147 509.26 342.482 467.083C296.276 436.075 295.307 366.332 337.331 331.346C339.397 325.149 335.342 319.871 334.985 313.929C332.537 272.772 357.553 233.018 398.99 224.73C409.955 183.981 449.48 164.856 489.26 161.975C505.606 160.802 530.647 165.366 536.563 182.477V182.502ZM528.887 345.677V201.602C528.887 196.91 514.633 184.517 509.278 182.987C486.71 176.51 435.838 190.79 425.612 213.077C424.363 215.78 423.955 217.769 424.337 220.727C435.302 217.361 472.073 230.213 475.006 240.158C478.117 250.715 472.201 256.733 461.618 253.545C458.762 252.678 457.334 248.828 454.886 247.527C435.328 237.021 418.651 236.639 398.123 244.238C365.713 256.223 349.75 286.517 356.635 320.304C359.465 324.486 375.25 319.998 375.25 331.652C375.25 341.444 357.425 342.362 350.438 347.028C346.843 349.425 335.036 361.461 332.843 365.133C323.128 381.403 325.295 419.143 336.413 434.851C338.224 437.401 350.668 450.559 352.886 447.677C367.549 415.445 399.398 391.526 435.634 392.75C442.34 392.98 471.079 398.131 474.878 402.16C478.933 406.469 476.867 417.664 471.206 419.372C463.684 421.616 445.273 412.997 435.685 412.079C420.257 410.575 402.892 418.939 391.264 428.68C369.691 446.785 356.176 478.813 364.234 506.455C368.798 522.137 386.393 537.437 401.336 543.302C411.995 547.484 423.7 547.892 434.282 552.431C435.251 580.099 458.048 594.659 481.738 602.896L530.723 545.929L528.836 390.302C525.062 364.521 482.732 328.566 459.272 319.616C452.719 317.117 428.953 313.649 427.193 312.195C424.235 309.722 424.771 301.001 427.295 297.584C438.311 286.338 481.942 307.503 493.06 316.454L528.887 345.651V345.677ZM549.287 214.352V440.027C557.549 436.534 561.782 426.257 567.188 420.953C577.669 410.651 593.989 399.584 604.214 389.129C611.482 381.658 614.44 367.735 627.062 368.474C644.887 376.889 623.492 398.182 614.363 406.928C592.025 428.323 563.822 447.244 553.061 478.226C545.717 499.366 550.511 525.758 549.644 548.071C559.36 560.26 572.339 569.848 582.488 581.527C586.466 586.091 595.723 603.737 601.129 602.921C615.74 597.923 630.607 590.528 639.761 577.651C644.02 571.658 648.227 556.435 653.838 553.477C677.91 549.856 707.719 529.813 712.003 504.542C713.355 496.637 710.958 486.361 712.87 479.909C714.298 475.039 735.234 458.591 740.206 451.145C758.158 424.396 760.071 373.243 734.188 350.802C728.145 357.56 714.706 376.43 707.49 380.179C696.652 385.789 688.314 373.574 693.261 363.4C720.852 346.544 732.633 320.763 722.127 288.888C716.364 271.37 699.253 254.208 680.562 251.403C675.564 250.638 667.684 252.831 663.91 250.205C658.223 231.692 652.843 213.077 637.313 200.301C619.004 185.256 590.623 174.929 567.877 184.466C554.285 190.152 553.648 198.159 551.327 211.292C551.047 212.847 549.389 213.74 549.313 214.377L549.287 214.352ZM538.093 567.731C470.288 628.115 434.894 744.217 486.914 825.001C495.38 838.133 524.425 868.478 540.413 868.427C573.895 855.295 598.426 823.496 609.952 790.091C634.1 720.017 605.566 634.745 556.988 581.501C552.985 577.09 543.83 566.023 538.093 567.706V567.731ZM475.337 845.477L456.187 809.803C443.233 779.126 440.402 749.801 442.085 716.6C442.391 710.506 445.681 706.222 444.737 698.878C443.998 693.242 433.747 680.849 429.488 675.851C392.743 632.833 349.622 603.457 294.415 589.075C280.645 585.479 265.727 584.944 252.212 580.303L249.637 585.352C255.808 678.784 309.128 758.624 387.77 806.794C415.03 823.496 444.508 836.858 475.337 845.452V845.477ZM829.813 582.827C793.731 584.102 754.69 597.26 723.504 615.493C687.906 636.275 662.023 667.691 636.344 699.184C642.031 737.918 638.41 776.321 622.013 812.353L602.863 845.477C636.701 837.7 668.883 822.808 698.08 804.269C762.136 763.571 812.346 700.229 826.702 624.341C829.303 610.622 830.451 596.801 829.813 582.827ZM505.912 871.054C478.04 866.081 452.897 860.624 426.862 849.328C408.425 841.346 385.22 829.412 368.314 818.626C360.103 813.373 344.93 798.328 336.337 797.053C305.762 792.539 266.926 816.28 243.313 834.002C243.338 836.858 273.173 857.284 278.12 860.369C334.679 895.559 395.267 907.391 460.751 893.366C475.949 890.102 490.969 882.656 505.912 878.551V871.054ZM837.463 832.753C830.221 831.146 824.586 824.338 817.93 820.411C799.8 809.701 765.247 793.967 744.414 797.078C735.744 798.379 733.5 804.371 727.686 808.4C683.596 838.949 641.852 858.559 588.736 868.351C581.927 869.6 575.705 866.744 572.263 876.103C585.038 880.54 597.304 886.66 610.436 890.205C686.274 910.63 762.417 893.775 824.586 846.65C828.895 843.386 830.094 840.479 835.857 837.853C838.815 836.501 837.565 835.456 837.489 832.778L837.463 832.753Z" fill="#426E8B"/>
<path d="M623.102 524.04L612.111 523.836L605.328 515.344C608.49 509.683 607.164 503.487 608.439 497.928C618.078 455.929 663.315 418.852 707.43 425.967C723.597 443.74 694.502 442.873 683.715 445.729C666.656 450.243 652.019 460.8 641.028 474.442C628.865 489.538 627.386 505.833 623.076 524.065L623.102 524.04Z" fill="#426E8B"/>
<path d="M663.844 315.271L662.875 327.945C654.358 340.848 618.684 313.435 611.901 304.74C604.761 295.636 587.115 261.007 593.796 251.19C595.836 248.206 604.353 244.764 608.076 247.365C612.691 250.603 614.068 267.127 616.873 274.293C625.059 295.177 642.985 308.565 663.87 315.271H663.844Z" fill="#426E8B"/>
<path d="M468.094 536.522C464.32 515.485 457.715 499.7 440.962 485.904C436.474 482.207 423.265 476.163 421.99 471.573C420.281 465.453 425.534 458.135 432.088 459.027C446.597 461.042 467.864 482.742 474.928 495.289C480.691 505.54 494.767 536.369 476.203 539.123L468.094 536.522Z" fill="#426E8B"/>
</g>
<defs>
<clipPath id="clip0_3573_255">
<rect width="644.87" height="756.917" fill="white" transform="translate(217.789 161.539)"/>
</clipPath>
</defs>
</svg>
