<svg width="1081" height="1080" viewBox="0 0 1081 1080" fill="none" xmlns="http://www.w3.org/2000/svg">
<rect x="0.609375" width="1080" height="1080" rx="250" fill="#426E8B"/>
<path d="M536.946 182.502H540.745C584.325 134.358 667.353 176.816 679.95 233.298C726.742 235.185 754.639 288.71 743.674 331.295C782.358 365.414 782.383 430.439 751.171 469.403C747.525 473.968 734.749 483.683 733.627 487.559C732.25 492.302 733.755 498.805 732.786 504.568C729.216 525.733 711.697 548.81 693.414 559.546C685.789 564.034 672.733 566.431 666.996 571.378C663.502 574.387 658.555 586.525 654.271 591.803C643.612 605.012 625.507 616.844 608.346 618.553C606.714 620.032 618.699 641.273 620.535 645.889C624.028 654.686 627.343 665.269 628.746 674.653C631.449 674.729 632.494 676.004 633.846 673.021C635.758 668.839 643.281 659.149 646.545 655.477C664.267 635.663 686.86 615.034 709.479 601.111C749.412 576.529 795.337 565.334 841.671 559.775L850.239 566.609C850.239 577.345 851.463 588.871 850.698 599.53C847.051 650.147 822.673 707.063 791.971 747.353C785.239 756.202 775.167 764.668 768.97 772.802C767.287 775.021 765.451 775.276 766.42 779.177C801.534 786.853 836.545 804.983 862.122 830.126L863.015 836.144C861.128 840.989 858.22 844.61 854.421 848.078C782.23 914.073 671.917 937.762 580.245 900.354C557.55 891.097 551.94 879.596 524.145 890.102C500.583 899.002 483.039 909.534 456.442 914.2C395.242 924.961 334.374 915.424 280.135 884.238C258.281 871.666 235.229 854.912 218.348 836.297C216.716 830.764 225.488 823.598 229.594 819.952C252.059 800.138 288.014 782.798 317.62 779.177C319.456 772.292 314.356 775.046 311.27 771.578C267.818 722.312 235.816 660.985 230.996 594.226C230.41 586.091 228.548 564.901 235.943 561.101C242.42 557.786 245.098 561.892 250.121 562.376C303.977 567.706 361.047 585.581 403.096 621.052C421.048 636.199 435.864 655.834 452.77 672.077L473.196 618.527C456.799 616.64 438.21 603.865 428.647 590.401C425.001 585.275 420.819 571.378 417.147 568.751C413.271 565.972 400.062 563.651 394.12 561.178C354.162 544.577 338.53 509.26 342.865 467.083C296.659 436.075 295.69 366.332 337.714 331.346C339.78 325.149 335.725 319.871 335.368 313.929C332.92 272.772 357.936 233.018 399.373 224.73C410.338 183.981 449.863 164.856 489.643 161.975C505.989 160.802 531.03 165.366 536.946 182.477V182.502ZM529.27 345.677V201.602C529.27 196.91 515.016 184.517 509.661 182.987C487.093 176.51 436.221 190.79 425.995 213.077C424.746 215.78 424.338 217.769 424.72 220.727C435.685 217.361 472.456 230.213 475.389 240.158C478.5 250.715 472.584 256.733 462.001 253.545C459.145 252.678 457.717 248.828 455.269 247.527C435.711 237.021 419.034 236.639 398.506 244.238C366.096 256.223 350.133 286.517 357.018 320.304C359.848 324.486 375.633 319.998 375.633 331.652C375.633 341.444 357.808 342.362 350.821 347.028C347.226 349.425 335.419 361.461 333.226 365.133C323.511 381.403 325.678 419.143 336.796 434.851C338.607 437.401 351.051 450.559 353.269 447.677C367.932 415.445 399.781 391.526 436.017 392.75C442.723 392.98 471.462 398.131 475.261 402.16C479.316 406.469 477.25 417.664 471.589 419.372C464.067 421.616 445.656 412.997 436.068 412.079C420.64 410.575 403.275 418.939 391.647 428.68C370.074 446.785 356.559 478.813 364.617 506.455C369.181 522.137 386.776 537.437 401.719 543.302C412.378 547.484 424.083 547.892 434.665 552.431C435.634 580.099 458.431 594.659 482.121 602.896L531.106 545.929L529.219 390.302C525.445 364.521 483.115 328.566 459.655 319.616C453.102 317.117 429.336 313.649 427.576 312.195C424.618 309.722 425.154 301.001 427.678 297.584C438.694 286.338 482.325 307.503 493.443 316.454L529.27 345.651V345.677ZM549.67 214.352V440.027C557.932 436.534 562.165 426.257 567.571 420.953C578.052 410.651 594.372 399.584 604.597 389.129C611.865 381.658 614.823 367.735 627.445 368.474C645.27 376.889 623.875 398.182 614.746 406.928C592.408 428.323 564.205 447.244 553.444 478.226C546.1 499.366 550.894 525.758 550.027 548.071C559.743 560.26 572.722 569.848 582.871 581.527C586.849 586.091 596.106 603.737 601.512 602.921C616.123 597.923 630.99 590.528 640.144 577.651C644.403 571.658 648.61 556.435 654.22 553.477C678.292 549.856 708.102 529.813 712.386 504.542C713.737 496.637 711.34 486.361 713.253 479.909C714.681 475.039 735.616 458.591 740.589 451.145C758.541 424.396 760.453 373.243 734.571 350.802C728.527 357.56 715.089 376.43 707.872 380.179C697.035 385.789 688.696 373.574 693.643 363.4C721.234 346.544 733.015 320.763 722.509 288.888C716.746 271.37 699.636 254.208 680.944 251.403C675.946 250.638 668.067 252.831 664.293 250.205C658.606 231.692 653.226 213.077 637.696 200.301C619.387 185.256 591.006 174.929 568.26 184.466C554.668 190.152 554.031 198.159 551.71 211.292C551.43 212.847 549.772 213.74 549.696 214.377L549.67 214.352ZM538.476 567.731C470.671 628.115 435.277 744.217 487.297 825.001C495.763 838.133 524.808 868.478 540.796 868.427C574.278 855.295 598.809 823.496 610.335 790.091C634.483 720.017 605.949 634.745 557.371 581.501C553.368 577.09 544.213 566.023 538.476 567.706V567.731ZM475.72 845.477L456.57 809.803C443.616 779.126 440.785 749.801 442.468 716.6C442.774 710.506 446.064 706.222 445.12 698.878C444.381 693.242 434.13 680.849 429.871 675.851C393.126 632.833 350.005 603.457 294.797 589.075C281.027 585.479 266.11 584.944 252.595 580.303L250.019 585.352C256.19 678.784 309.511 758.624 388.153 806.794C415.413 823.496 444.891 836.858 475.72 845.452V845.477ZM830.196 582.827C794.113 584.102 755.073 597.26 723.886 615.493C688.288 636.275 662.406 667.691 636.727 699.184C642.414 737.918 638.793 776.321 622.396 812.353L603.246 845.477C637.084 837.7 669.265 822.808 698.463 804.269C762.519 763.571 812.728 700.229 827.085 624.341C829.686 610.622 830.833 596.801 830.196 582.827ZM506.295 871.054C478.423 866.081 453.28 860.624 427.245 849.328C408.808 841.346 385.603 829.412 368.697 818.626C360.486 813.373 345.313 798.328 336.72 797.053C306.145 792.539 267.308 816.28 243.695 834.002C243.721 836.858 273.556 857.284 278.503 860.369C335.062 895.559 395.65 907.391 461.134 893.366C476.332 890.102 491.352 882.656 506.295 878.551V871.054ZM837.846 832.753C830.604 831.146 824.968 824.338 818.313 820.411C800.182 809.701 765.63 793.967 744.796 797.078C736.126 798.379 733.882 804.371 728.068 808.4C683.979 838.949 642.235 858.559 589.119 868.351C582.31 869.6 576.088 866.744 572.646 876.103C585.421 880.54 597.687 886.66 610.819 890.205C686.656 910.63 762.799 893.775 824.968 846.65C829.278 843.386 830.476 840.479 836.239 837.853C839.197 836.501 837.948 835.456 837.871 832.778L837.846 832.753Z" fill="white"/>
<path d="M623.477 524.048L612.486 523.844L605.703 515.352C608.865 509.691 607.539 503.495 608.814 497.936C618.453 455.937 663.69 418.86 707.805 425.974C723.972 443.748 694.877 442.881 684.09 445.737C667.031 450.25 652.394 460.807 641.403 474.45C629.24 489.546 627.761 505.841 623.451 524.073L623.477 524.048Z" fill="white"/>
<path d="M664.227 315.271L663.258 327.945C654.741 340.848 619.066 313.435 612.283 304.74C605.143 295.636 587.497 261.007 594.178 251.19C596.218 248.206 604.735 244.764 608.458 247.365C613.074 250.603 614.451 267.127 617.256 274.293C625.441 295.177 643.368 308.565 664.252 315.271H664.227Z" fill="white"/>
<path d="M468.477 536.53C464.703 515.492 458.098 499.708 441.345 485.912C436.857 482.215 423.648 476.171 422.373 471.581C420.664 465.461 425.917 458.143 432.471 459.035C446.98 461.05 468.247 482.75 475.311 495.296C481.074 505.547 495.15 536.377 476.586 539.131L468.477 536.53Z" fill="white"/>
</svg>
